HIERARCHY
ROOT Hips
{
	OFFSET 0.000000 0.000000 0.000000
	CHANNELS 6 Xposition Yposition Zposition Zrotation Yrotation Xrotation 
	JOINT LeftUpLeg_virtual
	{
		OFFSET 0.000000 0.000000 0.000000
		CHANNELS 3 Zrotation Yrotation Xrotation
		JOINT LeftUpLeg
		{
			OFFSET 10.205400 -3.823500 0.155100
			CHANNELS 3 Zrotation Yrotation Xrotation
			JOINT LeftLeg
			{
				OFFSET 0.708757 -12.982077 0.567790
				CHANNELS 3 Zrotation Yrotation Xrotation
				JOINT LeftFoot
				{
					OFFSET -0.708756 -10.717838 -2.184338
					CHANNELS 3 Zrotation Yrotation Xrotation
					JOINT LeftToeBase
					{
						OFFSET 0.108149 -7.191104 7.560241
						CHANNELS 3 Zrotation Yrotation Xrotation
						End Site
						{
							OFFSET 0.000000 0.000000 0.000000
						}
					}
				}
			}
		}
	}
	JOINT RightUpLeg_virtual
	{
		OFFSET 0.000000 0.000000 0.000000
		CHANNELS 3 Zrotation Yrotation Xrotation
		JOINT RightUpLeg
		{
			OFFSET -10.205400 -3.823500 0.005500
			CHANNELS 3 Zrotation Yrotation Xrotation
			JOINT RightLeg
			{
				OFFSET -0.708756 -12.982134 0.610632
				CHANNELS 3 Zrotation Yrotation Xrotation
				JOINT RightFoot
				{
					OFFSET 0.708754 -10.717769 -1.945823
					CHANNELS 3 Zrotation Yrotation Xrotation
					JOINT RightToeBase
					{
						OFFSET -0.108140 -7.191069 7.372968
						CHANNELS 3 Zrotation Yrotation Xrotation
						End Site
						{
							OFFSET 0.000000 0.000000 0.000000
						}
					}
				}
			}
		}
	}
	JOINT Spine_virtual
	{
		OFFSET 0.000000 0.000000 0.000000
		CHANNELS 3 Zrotation Yrotation Xrotation
		JOINT Spine
		{
			OFFSET 0.000000 6.876099 0.125700
			CHANNELS 3 Zrotation Yrotation Xrotation
			JOINT Spine1
			{
				OFFSET 0.000000 8.022060 0.146608
				CHANNELS 3 Zrotation Yrotation Xrotation
				JOINT Spine2
				{
					OFFSET 0.000000 9.168068 0.167552
					CHANNELS 3 Zrotation Yrotation Xrotation
					JOINT Neck_virtual
					{
						OFFSET 0.000000 0.000000 0.000000
						CHANNELS 3 Zrotation Yrotation Xrotation
						JOINT Neck
						{
							OFFSET 0.000000 10.314075 0.188496
							CHANNELS 3 Zrotation Yrotation Xrotation
							JOINT Head
							{
								OFFSET 0.000000 7.643700 -2.377400
								CHANNELS 3 Zrotation Yrotation Xrotation
								End Site
								{
									OFFSET 0.000000 0.000000 0.000000
								}
							}
						}
					}
					JOINT LeftShoulder_virtual
					{
						OFFSET 0.000000 0.000000 0.000000
						CHANNELS 3 Zrotation Yrotation Xrotation
						JOINT LeftShoulder
						{
							OFFSET 4.392200 8.824978 0.174984
							CHANNELS 3 Zrotation Yrotation Xrotation
							JOINT LeftArm
							{
								OFFSET 8.771219 -2.981674 -0.026999
								CHANNELS 3 Zrotation Yrotation Xrotation
								JOINT LeftForeArm
								{
									OFFSET 8.512804 0.000000 -0.000000
									CHANNELS 3 Zrotation Yrotation Xrotation
									JOINT LeftHand
									{
										OFFSET 18.484802 0.000000 -0.000000
										CHANNELS 3 Zrotation Yrotation Xrotation
										End Site
										{
											OFFSET 0.000000 0.000000 0.000000
										}
									}
								}
							}
						}
					}
					JOINT RightShoulder_virtual
					{
						OFFSET 0.000000 0.000000 0.000000
						CHANNELS 3 Zrotation Yrotation Xrotation
						JOINT RightShoulder
						{
							OFFSET -4.392200 8.824993 0.141379
							CHANNELS 3 Zrotation Yrotation Xrotation
							JOINT RightArm
							{
								OFFSET -8.771282 -2.981682 -0.094208
								CHANNELS 3 Zrotation Yrotation Xrotation
								JOINT RightForeArm
								{
									OFFSET -8.494598 0.000000 0.000000
									CHANNELS 3 Zrotation Yrotation Xrotation
									JOINT RightHand
									{
										OFFSET -18.483803 0.000000 0.000001
										CHANNELS 3 Zrotation Yrotation Xrotation
										End Site
										{
											OFFSET 0.000000 0.000000 0.000000
										}
									}
								}
							}
						}
					}
				}
			}
		}
	}
}
MOTION
Frames: 9
Frame Time: 0.033333
1.354558 35.262001 16.981665 179.972848 -1.921670 -179.220339 0.862992 -3.514202 7.709513 -19.022087 -1.275069 -19.292880 20.963473 1.193726 20.260322 -4.935268 -3.421774 2.231980 0.000000 0.000000 0.000000 3.431566 -1.697556 10.306148 -14.853203 -3.202579 -19.078571 -9.817271 -2.985933 36.200399 12.128366 6.332678 9.054395 0.000000 0.000000 0.000000 4.446835 -0.006395 -6.594522 0.848041 3.470533 -10.787072 -1.574322 -4.154014 9.434249 -0.042824 0.052433 0.135585 -1.840348 -2.469669 11.312377 -8.852842 3.556711 6.568350 0.000000 0.000000 0.000000 -0.157207 -1.714919 8.138059 -4.993825 5.274186 -2.262561 9.679096 13.119633 -31.161546 -7.766358 -64.168466 2.962732 0.000000 0.000000 0.000000 -3.960533 -0.461141 7.852579 24.069185 12.330929 4.173577 6.365340 -35.664454 55.713313 -98.908482 87.864756 -96.695364 0.000000 0.000000 0.000000 
1.415328 35.275677 17.042061 179.946101 -1.810308 -179.163826 0.753121 -3.593605 7.820583 -18.646693 -1.443879 -19.674160 20.649356 1.158633 20.391781 -4.880087 -3.131549 2.302368 0.000000 0.000000 0.000000 3.395529 -1.746226 10.363975 -14.780032 -3.151609 -19.441809 -9.924804 -3.231336 36.345936 12.075561 6.375477 9.045953 0.000000 0.000000 0.000000 4.352900 -0.031450 -6.406355 0.746067 3.380504 -10.810064 -1.565251 -4.148859 9.626516 -0.027854 0.041287 0.152561 -1.733174 -2.552534 11.280158 -8.734212 3.610112 6.397851 0.000000 0.000000 0.000000 -0.151463 -1.724832 8.069078 -5.072525 5.193371 -2.331793 9.572134 12.895036 -30.864068 -7.594773 -64.317446 2.838290 0.000000 0.000000 0.000000 -3.949123 -0.456671 7.756451 24.011081 12.327825 4.185822 6.269180 -35.629730 55.931620 -96.754786 87.874769 -94.516595 0.000000 0.000000 0.000000 
1.481374 35.289570 17.098989 179.982315 -1.761131 -179.244600 0.810179 -3.625301 8.052868 -18.566184 -1.574947 -20.009541 20.798001 1.000733 20.493805 -5.059849 -3.097484 2.479706 0.000000 0.000000 0.000000 3.465001 -1.878269 10.468630 -14.742723 -3.077651 -19.860899 -10.001939 -3.442320 36.702855 12.088436 6.514934 8.999997 0.000000 0.000000 0.000000 4.305550 -0.122586 -5.890240 0.672554 3.367759 -10.766112 -1.505764 -4.095439 9.394543 0.011261 0.086328 0.224625 -1.753864 -2.457723 11.321573 -8.699232 3.644761 6.355693 0.000000 0.000000 0.000000 -0.187552 -1.744348 8.150046 -5.130426 5.162358 -2.281748 9.583095 12.703412 -30.534811 -7.485335 -64.493365 2.875987 0.000000 0.000000 0.000000 -3.991336 -0.425661 7.763563 24.022773 12.246072 4.205724 6.142057 -35.725953 56.100882 -98.898134 87.745446 -96.664867 0.000000 0.000000 0.000000 
1.553688 35.310413 17.156891 179.930105 -1.791180 -179.257741 0.644647 -3.752912 8.258728 -18.119081 -1.470481 -20.361424 20.452276 1.047182 20.529226 -5.073938 -2.954140 2.504339 0.000000 0.000000 0.000000 3.467184 -1.985851 10.557175 -14.850930 -2.932389 -20.303507 -10.202431 -3.890375 37.178536 11.968961 6.680326 8.914088 0.000000 0.000000 0.000000 4.208273 -0.176110 -5.517234 0.534161 3.302919 -10.669808 -1.528081 -4.088566 9.300170 -0.012749 0.055842 0.136520 -1.696965 -2.474136 11.328792 -8.576459 3.682431 6.176673 0.000000 0.000000 0.000000 -0.088460 -1.666859 8.206636 -5.046624 5.215007 -2.217341 9.385954 12.559212 -30.327495 -7.617982 -64.646573 3.171476 0.000000 0.000000 0.000000 -3.897673 -0.363763 7.837494 23.929085 12.370315 4.097159 6.087003 -35.584340 56.208273 -97.042727 87.796461 -94.834561 0.000000 0.000000 0.000000 
1.621492 35.338116 17.227446 179.883140 -1.889068 -179.277289 0.557908 -3.847087 8.424412 -17.876753 -1.273271 -20.630817 20.300871 1.144049 20.440178 -5.299039 -3.073528 2.460518 0.000000 0.000000 0.000000 3.534218 -2.052070 10.627009 -14.969533 -2.754470 -20.676559 -10.277170 -4.154794 37.556683 11.857471 6.858142 8.883152 0.000000 0.000000 0.000000 4.120891 -0.163117 -5.132013 0.419965 3.266765 -10.559682 -1.551054 -4.047729 9.186042 0.053927 0.066353 0.110083 -1.715237 -2.301266 11.206483 -8.538741 3.514824 5.918090 0.000000 0.000000 0.000000 -0.118949 -1.643420 8.171460 -5.052034 5.218228 -2.344132 9.127778 12.437483 -30.242582 -7.686082 -64.724942 3.425902 0.000000 0.000000 0.000000 -3.920896 -0.354371 7.815478 23.877102 12.438714 4.094287 6.246779 -35.489130 56.237179 -94.873575 87.792827 -92.747453 0.000000 0.000000 0.000000 
1.664735 35.371620 17.335035 179.910079 -1.999613 -179.282944 0.584679 -3.923728 8.551195 -17.588990 -0.903876 -20.765469 19.859180 1.394320 20.048202 -5.445746 -3.102728 2.537999 0.000000 0.000000 0.000000 3.691617 -2.008013 10.716445 -15.149708 -2.553306 -20.943445 -10.333117 -4.529300 37.687321 11.823286 7.038406 8.980054 0.000000 0.000000 0.000000 4.096593 -0.109928 -4.781386 0.288073 3.165486 -10.369270 -1.534661 -4.043127 9.085423 -0.005326 0.061694 0.100630 -1.701079 -2.374622 11.122237 -8.389750 3.767350 5.562645 0.000000 0.000000 0.000000 -0.097196 -1.616047 8.116941 -4.959175 5.232172 -2.177490 8.724310 12.468823 -30.495299 -7.683792 -64.685348 3.650530 0.000000 0.000000 0.000000 -3.883234 -0.274063 7.757729 23.859418 12.611459 4.065128 6.561387 -35.541156 56.158362 -93.388883 87.754755 -91.386244 0.000000 0.000000 0.000000 
1.682504 35.404568 17.455805 179.861639 -2.063309 -179.296113 0.539396 -3.908436 8.601781 -17.297176 -0.427941 -20.946665 19.130506 1.566201 19.608358 -5.606490 -3.152915 2.601406 0.000000 0.000000 0.000000 3.809291 -1.833859 10.849783 -15.403583 -2.399277 -21.105846 -10.280889 -4.711482 37.524820 11.908665 7.201329 9.197876 0.000000 0.000000 0.000000 4.053973 0.043587 -4.433517 0.114572 3.038665 -10.180324 -1.483164 -4.039426 9.012304 0.046929 0.067938 0.179077 -1.808416 -2.262731 11.172228 -8.341972 3.798380 5.198673 0.000000 0.000000 0.000000 -0.256935 -1.620046 8.082252 -4.955222 5.148424 -2.234850 8.329329 12.478888 -30.686694 -7.269190 -64.592047 3.352739 0.000000 0.000000 0.000000 -4.031957 -0.235255 7.706041 23.819926 12.739599 4.088375 7.150044 -35.601043 56.220021 -90.781547 87.667534 -88.954608 0.000000 0.000000 0.000000 
1.680463 35.434383 17.574903 179.850574 -1.996695 -179.311017 0.444789 -3.703078 8.635649 -17.028003 -0.061944 -21.120231 18.626795 1.773643 19.349216 -5.676169 -3.214746 2.639883 0.000000 0.000000 0.000000 3.992593 -1.566287 10.984805 -15.681100 -2.309530 -21.160512 -10.245052 -4.921333 37.135595 12.140085 7.329311 9.515644 0.000000 0.000000 0.000000 4.110258 0.162166 -4.116812 0.029623 2.911900 -9.934821 -1.648385 -3.977577 8.954703 -0.005712 0.057881 0.161780 -1.744718 -2.260349 11.066460 -8.210226 3.826672 4.660243 0.000000 0.000000 0.000000 -0.257327 -1.558718 8.013196 -4.858023 5.057221 -2.352137 7.753309 12.614328 -30.903119 -6.898988 -64.037996 3.195892 0.000000 0.000000 0.000000 -4.017336 -0.200508 7.629028 23.718448 12.918014 4.129734 7.863571 -35.895158 56.306676 -91.175266 87.666024 -89.555712 0.000000 0.000000 0.000000 
1.664808 35.461716 17.666538 179.840179 -1.747717 -179.400424 0.421629 -3.412127 8.685795 -16.967742 0.139549 -21.250421 18.334972 1.842987 19.203972 -5.669405 -3.234282 2.933641 0.000000 0.000000 0.000000 4.135122 -1.310357 11.091240 -15.951123 -2.323313 -21.085477 -10.194553 -5.032056 36.630810 12.473777 7.421393 9.831776 0.000000 0.000000 0.000000 4.143876 0.392509 -3.735598 -0.073725 2.816787 -9.598525 -1.729092 -3.924628 8.836471 -0.018807 0.091232 0.156058 -1.851903 -2.368572 10.912543 -8.191583 3.854474 4.049597 0.000000 0.000000 0.000000 -0.362519 -1.606247 7.920106 -4.785702 4.871261 -2.431110 7.332731 12.863244 -30.995159 -6.434610 -63.124267 2.995141 0.000000 0.000000 0.000000 -4.154396 -0.262584 7.501040 23.599625 12.958570 4.200803 8.752902 -36.338485 56.324117 -93.706220 87.474076 -92.327622 0.000000 0.000000 0.000000 
